<svg width="41" height="40" viewBox="0 0 41 40" fill="none" xmlns="http://www.w3.org/2000/svg">
<path d="M20.5329 40C31.5757 40 40.5277 31.0457 40.5277 20C40.5277 8.9543 31.5757 0 20.5329 0C9.49006 0 0.538086 8.9543 0.538086 20C0.538086 31.0457 9.49006 40 20.5329 40Z" fill="#E5FDFB"/>
<path d="M20.533 39.5C31.2998 39.5 40.0279 30.7696 40.0279 20C40.0279 9.23045 31.2998 0.5 20.533 0.5C9.76626 0.5 1.03809 9.23045 1.03809 20C1.03809 30.7696 9.76626 39.5 20.533 39.5Z" stroke="#00E9D1"/>
<path d="M10.5327 25V15.116H12.1007L15.9927 21.178H15.1947L19.0727 15.116H20.6547V25H18.4567V18.826L18.8487 18.924L16.3147 22.872H14.8587L12.3387 18.924L12.7167 18.826V25H10.5327ZM21.8083 25L25.7283 15.116H27.7163L31.5943 25H29.2703L26.3023 16.796H27.1003L24.0903 25H21.8083ZM24.0343 23.208V21.416H29.4243V23.208H24.0343Z" fill="black"/>
</svg>
