<svg width="147" height="45" viewBox="0 0 147 45" fill="none" xmlns="http://www.w3.org/2000/svg">
<path d="M136.574 0H10.6064C5.085 0 0.609009 4.47715 0.609009 10V35C0.609009 40.5228 5.085 45 10.6064 45H136.574C142.095 45 146.571 40.5228 146.571 35V10C146.571 4.47715 142.095 0 136.574 0Z" fill="white"/>
<path d="M136.574 0.5H10.6065C5.3612 0.5 1.10901 4.75329 1.10901 10V35C1.10901 40.2467 5.3612 44.5 10.6065 44.5H136.574C141.819 44.5 146.071 40.2467 146.071 35V10C146.071 4.75329 141.819 0.5 136.574 0.5Z" stroke="#04095A"/>
<path d="M51.3813 29.16C50.5706 29.16 49.8186 29.016 49.1253 28.728C48.4426 28.4293 47.8453 28.0187 47.3333 27.496C46.8213 26.9627 46.4266 26.3493 46.1493 25.656C45.8719 24.952 45.7333 24.2 45.7333 23.4C45.7333 22.6 45.8719 21.8533 46.1493 21.16C46.4266 20.456 46.8213 19.8427 47.3333 19.32C47.8453 18.7973 48.4426 18.3867 49.1253 18.088C49.8186 17.7893 50.5706 17.64 51.3813 17.64C52.2879 17.64 53.0719 17.7893 53.7333 18.088C54.3946 18.3867 54.9813 18.792 55.4933 19.304L54.2453 20.552C53.9146 20.1893 53.5093 19.9067 53.0293 19.704C52.5599 19.5013 52.0106 19.4 51.3813 19.4C50.8266 19.4 50.3199 19.496 49.8613 19.688C49.4026 19.88 49.0026 20.1573 48.6613 20.52C48.3306 20.872 48.0746 21.2933 47.8933 21.784C47.7119 22.2747 47.6213 22.8133 47.6213 23.4C47.6213 23.9867 47.7119 24.5253 47.8933 25.016C48.0746 25.5067 48.3306 25.9333 48.6613 26.296C49.0026 26.648 49.4026 26.92 49.8613 27.112C50.3199 27.304 50.8266 27.4 51.3813 27.4C52.0639 27.4 52.6399 27.2987 53.1093 27.096C53.5893 26.8827 53.9946 26.5947 54.3253 26.232L55.5733 27.48C55.0613 28.0027 54.4586 28.4133 53.7653 28.712C53.0719 29.0107 52.2773 29.16 51.3813 29.16ZM56.9751 29V17.48H58.7351V29H56.9751ZM64.2139 29.16C63.4672 29.16 62.7899 28.984 62.1819 28.632C61.5739 28.2693 61.0886 27.784 60.7259 27.176C60.3739 26.568 60.1979 25.8907 60.1979 25.144C60.1979 24.3973 60.3739 23.7253 60.7259 23.128C61.0886 22.5307 61.5739 22.056 62.1819 21.704C62.7899 21.3413 63.4672 21.16 64.2139 21.16C64.9712 21.16 65.6539 21.336 66.2619 21.688C66.8699 22.04 67.3499 22.52 67.7019 23.128C68.0646 23.7253 68.2459 24.3973 68.2459 25.144C68.2459 25.8907 68.0646 26.568 67.7019 27.176C67.3499 27.784 66.8699 28.2693 66.2619 28.632C65.6539 28.984 64.9712 29.16 64.2139 29.16ZM64.2139 27.464C64.6512 27.464 65.0352 27.368 65.3659 27.176C65.7072 26.9733 65.9686 26.696 66.1499 26.344C66.3419 25.992 66.4379 25.592 66.4379 25.144C66.4379 24.696 66.3419 24.3013 66.1499 23.96C65.9579 23.6187 65.6966 23.352 65.3659 23.16C65.0352 22.9573 64.6512 22.856 64.2139 22.856C63.7872 22.856 63.4032 22.9573 63.0619 23.16C62.7312 23.352 62.4699 23.6187 62.2779 23.96C62.0966 24.3013 62.0059 24.696 62.0059 25.144C62.0059 25.592 62.0966 25.992 62.2779 26.344C62.4699 26.696 62.7312 26.9733 63.0619 27.176C63.4032 27.368 63.7872 27.464 64.2139 27.464ZM73.2455 29.16C72.4882 29.16 71.8002 28.984 71.1815 28.632C70.5735 28.28 70.0935 27.8 69.7415 27.192C69.3895 26.584 69.2135 25.9067 69.2135 25.16C69.2135 24.4027 69.3895 23.7253 69.7415 23.128C70.0935 22.52 70.5735 22.04 71.1815 21.688C71.8002 21.336 72.4882 21.16 73.2455 21.16C73.8429 21.16 74.3975 21.2773 74.9095 21.512C75.4322 21.736 75.8749 22.0613 76.2375 22.488L75.0855 23.656C74.8615 23.3893 74.5895 23.192 74.2695 23.064C73.9602 22.9253 73.6189 22.856 73.2455 22.856C72.8082 22.856 72.4189 22.9573 72.0775 23.16C71.7469 23.352 71.4855 23.6187 71.2935 23.96C71.1122 24.3013 71.0215 24.7013 71.0215 25.16C71.0215 25.608 71.1122 26.008 71.2935 26.36C71.4855 26.7013 71.7469 26.9733 72.0775 27.176C72.4189 27.368 72.8082 27.464 73.2455 27.464C73.6189 27.464 73.9602 27.4 74.2695 27.272C74.5895 27.1333 74.8615 26.9307 75.0855 26.664L76.2375 27.832C75.8749 28.2587 75.4322 28.5893 74.9095 28.824C74.3975 29.048 73.8429 29.16 73.2455 29.16ZM82.3864 29L79.1384 25.08L82.3704 21.32H84.4664L80.7544 25.544L80.8344 24.536L84.6264 29H82.3864ZM77.5064 29V17.48H79.2664V29H77.5064ZM88.8556 29.16C88.0876 29.16 87.3943 28.9893 86.7756 28.648C86.1676 28.296 85.6823 27.816 85.3196 27.208C84.9676 26.6 84.7916 25.9173 84.7916 25.16C84.7916 24.4027 84.9676 23.7253 85.3196 23.128C85.6716 22.52 86.1463 22.04 86.7436 21.688C87.3516 21.336 88.0236 21.16 88.7596 21.16C89.4743 21.16 90.1036 21.3253 90.6476 21.656C91.2023 21.9867 91.6343 22.44 91.9436 23.016C92.2636 23.592 92.4236 24.248 92.4236 24.984C92.4236 25.112 92.413 25.2453 92.3916 25.384C92.381 25.512 92.3596 25.656 92.3276 25.816H86.0236V24.376H91.4156L90.7596 24.952C90.7383 24.4827 90.6476 24.088 90.4876 23.768C90.3276 23.448 90.0983 23.2027 89.7996 23.032C89.5116 22.8613 89.1543 22.776 88.7276 22.776C88.2796 22.776 87.8903 22.872 87.5596 23.064C87.229 23.256 86.973 23.528 86.7916 23.88C86.6103 24.2213 86.5196 24.632 86.5196 25.112C86.5196 25.592 86.6156 26.0133 86.8076 26.376C86.9996 26.7387 87.2716 27.0213 87.6236 27.224C87.9756 27.416 88.381 27.512 88.8396 27.512C89.2343 27.512 89.597 27.4427 89.9276 27.304C90.269 27.1653 90.557 26.9627 90.7916 26.696L91.9116 27.832C91.5383 28.2693 91.085 28.6 90.5516 28.824C90.0183 29.048 89.453 29.16 88.8556 29.16ZM97.0505 29.16C96.3572 29.16 95.7279 28.984 95.1625 28.632C94.6079 28.28 94.1652 27.8053 93.8345 27.208C93.5145 26.6 93.3545 25.9227 93.3545 25.176C93.3545 24.4187 93.5145 23.7413 93.8345 23.144C94.1652 22.536 94.6079 22.056 95.1625 21.704C95.7279 21.3413 96.3572 21.16 97.0505 21.16C97.6372 21.16 98.1545 21.288 98.6025 21.544C99.0612 21.7893 99.4239 22.1307 99.6905 22.568C99.9572 23.0053 100.091 23.5013 100.091 24.056V26.264C100.091 26.8187 99.9572 27.3147 99.6905 27.752C99.4345 28.1893 99.0772 28.536 98.6185 28.792C98.1599 29.0373 97.6372 29.16 97.0505 29.16ZM97.3385 27.496C97.7759 27.496 98.1545 27.4 98.4745 27.208C98.8052 27.0053 99.0612 26.728 99.2425 26.376C99.4239 26.024 99.5145 25.6187 99.5145 25.16C99.5145 24.7013 99.4239 24.296 99.2425 23.944C99.0612 23.592 98.8052 23.32 98.4745 23.128C98.1545 22.9253 97.7812 22.824 97.3545 22.824C96.9172 22.824 96.5332 22.9253 96.2025 23.128C95.8825 23.32 95.6265 23.592 95.4345 23.944C95.2532 24.296 95.1625 24.7013 95.1625 25.16C95.1625 25.6187 95.2532 26.024 95.4345 26.376C95.6265 26.728 95.8825 27.0053 96.2025 27.208C96.5332 27.4 96.9119 27.496 97.3385 27.496ZM101.163 29H99.4025V26.936L99.7065 25.064L99.4025 23.208V17.48H101.163V29ZM103.116 25.752V24.088H108.54V25.752H103.116ZM110.731 29V17.8H112.571V29H110.731ZM120.02 29V24.568C120.02 24.056 119.855 23.6347 119.524 23.304C119.204 22.9733 118.788 22.808 118.276 22.808C117.935 22.808 117.631 22.8827 117.364 23.032C117.098 23.1813 116.89 23.3893 116.74 23.656C116.591 23.9227 116.516 24.2267 116.516 24.568L115.828 24.184C115.828 23.5973 115.956 23.08 116.212 22.632C116.468 22.1733 116.82 21.816 117.268 21.56C117.727 21.2933 118.239 21.16 118.804 21.16C119.38 21.16 119.892 21.3093 120.34 21.608C120.788 21.896 121.14 22.2747 121.396 22.744C121.652 23.2027 121.78 23.6827 121.78 24.184V29H120.02ZM114.756 29V21.32H116.516V29H114.756Z" fill="#04095A"/>
<path d="M23.947 26.2818L27.228 23.0007L23.947 19.7188" stroke="#04095A" stroke-width="1.5" stroke-linecap="round" stroke-linejoin="round"/>
<path d="M18.4791 23H27.2268" stroke="#04095A" stroke-width="1.5" stroke-linecap="round" stroke-linejoin="round"/>
<path d="M27.2269 16.125H31.6008C31.7665 16.125 31.9254 16.1908 32.0426 16.3081C32.1598 16.4253 32.2256 16.5842 32.2256 16.75V29.25C32.2256 29.4158 32.1598 29.5747 32.0426 29.6919C31.9254 29.8092 31.7665 29.875 31.6008 29.875H27.2269" stroke="#04095A" stroke-width="1.5" stroke-linecap="round" stroke-linejoin="round"/>
</svg>
