<svg width="21" height="20" viewBox="0 0 21 20" fill="none" xmlns="http://www.w3.org/2000/svg">
<rect width="21" height="20" fill="#F5F5F5"/>
<g id="Completed Tasks" clip-path="url(#clip0_234_95)">
<rect width="1920" height="948" transform="translate(-1517 -31)" fill="#F4F4F4"/>
<g id="Component 64 &#226;&#128;&#147; 132">
<g id="Group 11681">
<path id="Rectangle 2616" d="M402.5 -31H-1216.08V49H402.5V-31Z" fill="white"/>
<g id="Component 67 &#226;&#128;&#147; 1">
<g id="Area [DISPLAY_ELEMENTS:Label][SIZE:MEDIUM][STATE:DEFAULT][STYLE:STYLE1]">
<path id="Vector" d="M120.574 -13H-5.39359C-10.915 -13 -15.391 -8.52285 -15.391 -3V22C-15.391 27.5228 -10.915 32 -5.39359 32H120.574C126.095 32 130.571 27.5228 130.571 22V-3C130.571 -8.52285 126.095 -13 120.574 -13Z" fill="white"/>
<path id="Vector_2" d="M120.574 -12.5H-5.39347C-10.6388 -12.5 -14.891 -8.24671 -14.891 -3V22C-14.891 27.2467 -10.6388 31.5 -5.39347 31.5H120.574C125.819 31.5 130.071 27.2467 130.071 22V-3C130.071 -8.24671 125.819 -12.5 120.574 -12.5Z" stroke="#04095A"/>
</g>
<g id="Group 12411">
<g id="Group 13087">
<path id="Path 12277" d="M7.94702 13.2818L11.228 10.0007L7.94702 6.71875" stroke="#04095A" stroke-width="1.5" stroke-linecap="round" stroke-linejoin="round"/>
<path id="Line 321" d="M2.47913 10H11.2268" stroke="#04095A" stroke-width="1.5" stroke-linecap="round" stroke-linejoin="round"/>
<path id="Path 12278" d="M11.2269 3.125H15.6008C15.7665 3.125 15.9254 3.19085 16.0426 3.30806C16.1598 3.42527 16.2256 3.58424 16.2256 3.75V16.25C16.2256 16.4158 16.1598 16.5747 16.0426 16.6919C15.9254 16.8092 15.7665 16.875 15.6008 16.875H11.2269" stroke="#04095A" stroke-width="1.5" stroke-linecap="round" stroke-linejoin="round"/>
</g>
</g>
</g>
</g>
</g>
</g>
<defs>
<clipPath id="clip0_234_95">
<rect width="1920" height="948" fill="white" transform="translate(-1517 -31)"/>
</clipPath>
</defs>
</svg>
